<svg id="svg" xmlns="http://www.w3.org/2000/svg" xmlns:xlink="http://www.w3.org/1999/xlink" width="400" height="109.23441199684294" viewBox="0, 0, 400,109.23441199684294"><g id="svgg"><path id="path0" d="M199.081 2.289 C 193.618 23.656,183.777 34.118,166.377 37.060 C 159.286 38.258,158.377 38.280,106.077 38.499 C 50.427 38.732,51.688 38.693,42.620 40.432 C 13.833 45.953,2.505 62.416,0.299 101.940 C -0.008 107.431,0.009 108.116,0.463 108.570 C 1.030 109.137,1.564 108.670,1.574 107.598 C 1.585 106.380,3.293 98.721,4.281 95.462 C 9.932 76.811,20.513 67.105,39.319 63.322 C 47.042 61.768,45.841 61.802,100.237 61.557 C 150.226 61.331,153.949 61.253,161.484 60.271 C 182.234 57.566,194.611 45.434,199.544 22.968 C 200.121 20.342,200.545 20.701,201.664 24.764 C 207.109 44.529,216.961 55.074,233.674 59.027 C 242.885 61.205,245.508 61.304,300.710 61.556 C 356.986 61.814,354.932 61.713,365.480 64.729 C 384.041 70.037,395.768 85.055,397.996 106.374 C 398.242 108.730,398.499 109.194,399.224 108.592 C 400.011 107.939,399.351 94.944,398.078 86.030 C 393.427 53.465,378.935 41.184,342.389 38.840 C 339.355 38.645,320.160 38.515,294.244 38.513 C 242.804 38.510,238.156 38.338,229.562 36.114 C 215.562 32.492,207.274 22.887,202.147 4.344 C 200.654 -1.054,200.041 -1.465,199.081 2.289 " stroke="none" fill="#000000" fill-rule="evenodd"></path></g></svg>